<svg width="30" height="30" viewBox="0 0 30 30" fill="none" xmlns="http://www.w3.org/2000/svg">
<path d="M7.5 25C6.8125 25 6.22417 24.7554 5.735 24.2663C5.24583 23.7771 5.00083 23.1883 5 22.5C5 21.8125 5.245 21.2242 5.735 20.735C6.225 20.2458 6.81333 20.0008 7.5 20C8.1875 20 8.77625 20.245 9.26625 20.735C9.75625 21.225 10.0008 21.8133 10 22.5C10 23.1875 9.75542 23.7763 9.26625 24.2663C8.77708 24.7563 8.18833 25.0008 7.5 25ZM7.5 17.5C6.8125 17.5 6.22417 17.2554 5.735 16.7663C5.24583 16.2771 5.00083 15.6883 5 15C5 14.3125 5.245 13.7242 5.735 13.235C6.225 12.7458 6.81333 12.5008 7.5 12.5C8.1875 12.5 8.77625 12.745 9.26625 13.235C9.75625 13.725 10.0008 14.3133 10 15C10 15.6875 9.75542 16.2762 9.26625 16.7663C8.77708 17.2563 8.18833 17.5008 7.5 17.5ZM7.5 10C6.8125 10 6.22417 9.75542 5.735 9.26625C5.24583 8.77708 5.00083 8.18833 5 7.5C5 6.8125 5.245 6.22417 5.735 5.735C6.225 5.24583 6.81333 5.00083 7.5 5C8.1875 5 8.77625 5.245 9.26625 5.735C9.75625 6.225 10.0008 6.81333 10 7.5C10 8.1875 9.75542 8.77625 9.26625 9.26625C8.77708 9.75625 8.18833 10.0008 7.5 10ZM15 10C14.3125 10 13.7242 9.75542 13.235 9.26625C12.7458 8.77708 12.5008 8.18833 12.5 7.5C12.5 6.8125 12.745 6.22417 13.235 5.735C13.725 5.24583 14.3133 5.00083 15 5C15.6875 5 16.2762 5.245 16.7663 5.735C17.2563 6.225 17.5008 6.81333 17.5 7.5C17.5 8.1875 17.2554 8.77625 16.7663 9.26625C16.2771 9.75625 15.6883 10.0008 15 10ZM22.5 10C21.8125 10 21.2242 9.75542 20.735 9.26625C20.2458 8.77708 20.0008 8.18833 20 7.5C20 6.8125 20.245 6.22417 20.735 5.735C21.225 5.24583 21.8133 5.00083 22.5 5C23.1875 5 23.7763 5.245 24.2663 5.735C24.7563 6.225 25.0008 6.81333 25 7.5C25 8.1875 24.7554 8.77625 24.2663 9.26625C23.7771 9.75625 23.1883 10.0008 22.5 10ZM15 17.5C14.3125 17.5 13.7242 17.2554 13.235 16.7663C12.7458 16.2771 12.5008 15.6883 12.5 15C12.5 14.3125 12.745 13.7242 13.235 13.235C13.725 12.7458 14.3133 12.5008 15 12.5C15.6875 12.5 16.2762 12.745 16.7663 13.235C17.2563 13.725 17.5008 14.3133 17.5 15C17.5 15.6875 17.2554 16.2762 16.7663 16.7663C16.2771 17.2563 15.6883 17.5008 15 17.5ZM16.25 23.75V21.6875C16.25 21.5208 16.2812 21.3596 16.3438 21.2037C16.4062 21.0479 16.5 20.9071 16.625 20.7812L23.1562 14.2812C23.3438 14.0938 23.5521 13.9583 23.7812 13.875C24.0104 13.7917 24.2396 13.75 24.4688 13.75C24.7188 13.75 24.9583 13.7971 25.1875 13.8912C25.4167 13.9854 25.625 14.1258 25.8125 14.3125L26.9688 15.4688C27.1354 15.6562 27.2658 15.8646 27.36 16.0938C27.4542 16.3229 27.5008 16.5521 27.5 16.7812C27.5 17.0104 27.4583 17.245 27.375 17.485C27.2917 17.725 27.1563 17.9383 26.9688 18.125L20.4688 24.625C20.3438 24.75 20.2033 24.8437 20.0475 24.9062C19.8917 24.9688 19.73 25 19.5625 25H17.5C17.1458 25 16.8492 24.8804 16.61 24.6412C16.3708 24.4021 16.2508 24.105 16.25 23.75ZM18.125 23.125H19.3125L23.0938 19.3125L22.5312 18.7188L21.9375 18.1562L18.125 21.9375V23.125ZM22.5312 18.7188L21.9375 18.1562L23.0938 19.3125L22.5312 18.7188Z" fill="#208CFF"/>
</svg>
