<svg width="26" height="32" viewBox="0 0 26 32" fill="none" xmlns="http://www.w3.org/2000/svg">
<path d="M13 31C13 31 25 22 25 12.25C25 6.037 19.6277 1 13 1C6.37225 1 1 6.037 1 12.25C1 22 13 31 13 31Z" stroke="#208CFF" stroke-width="2" stroke-linejoin="round"/>
<path d="M10.75 8.5V20.5" stroke="#208CFF" stroke-width="2" stroke-linecap="round" stroke-linejoin="round"/>
<path d="M10.75 8.5H15.25C16.0456 8.5 16.8087 8.81607 17.3713 9.37868C17.9339 9.94129 18.25 10.7044 18.25 11.5C18.25 12.2956 17.9339 13.0587 17.3713 13.6213C16.8087 14.1839 16.0456 14.5 15.25 14.5H10.75V8.5Z" stroke="#208CFF" stroke-width="2" stroke-linejoin="round"/>
</svg>
